<?xml version="1.0" standalone="no"?>
<!DOCTYPE svg PUBLIC "-//W3C//DTD SVG 20010904//EN"
 "http://www.w3.org/TR/2001/REC-SVG-20010904/DTD/svg10.dtd">
<svg version="1.0" xmlns="http://www.w3.org/2000/svg"
 width="225.000000pt" height="225.000000pt" viewBox="0 0 225.000000 225.000000"
 preserveAspectRatio="xMidYMid meet">

<g transform="translate(0.000000,225.000000) scale(0.100000,-0.100000)"
fill="#000000" stroke="none">
<path d="M720 2235 c-30 -9 -73 -26 -95 -40 -46 -26 -129 -112 -146 -149 -7
-14 -36 -41 -65 -60 -67 -45 -126 -119 -154 -193 -19 -51 -20 -58 -5 -72 22
-22 45 -5 62 45 20 60 83 136 143 172 39 23 61 45 77 76 30 60 112 131 175
152 63 21 137 23 200 5 56 -16 81 -9 76 21 -7 45 -167 71 -268 43z"/>
<path d="M1331 2235 c-67 -19 -71 -22 -71 -46 0 -28 24 -33 78 -18 63 18 137
16 200 -5 63 -21 145 -92 175 -152 16 -31 38 -53 77 -76 60 -36 123 -112 143
-172 17 -50 40 -67 62 -45 15 14 14 21 -5 72 -27 73 -86 147 -150 190 -28 19
-63 54 -79 78 -41 65 -124 135 -189 159 -75 28 -172 34 -241 15z"/>
<path d="M767 2099 c-21 -5 -50 -15 -66 -23 -40 -21 -97 -87 -111 -130 -9 -27
-21 -40 -53 -54 -23 -10 -56 -31 -74 -46 -35 -30 -83 -118 -83 -153 0 -13 -4
-23 -9 -23 -21 0 -110 -93 -130 -135 -12 -26 -25 -81 -30 -128 -5 -51 -19
-106 -36 -147 -39 -90 -39 -180 0 -270 17 -41 31 -96 36 -147 5 -47 18 -102
30 -128 19 -40 109 -135 129 -135 4 0 10 -17 13 -38 9 -55 60 -128 114 -162
26 -17 53 -30 60 -30 8 0 22 -20 32 -44 23 -52 73 -112 112 -132 95 -49 206
-35 283 37 l43 39 36 -15 c46 -19 78 -19 124 0 l36 15 43 -39 c77 -72 188 -86
283 -37 39 20 89 80 112 132 10 24 24 44 32 44 7 0 34 13 60 30 54 34 105 107
114 162 3 21 9 38 13 38 20 0 110 95 129 135 12 26 25 82 30 133 7 58 19 107
37 147 38 83 38 177 0 260 -18 40 -30 89 -37 147 -5 51 -18 107 -30 133 -20
42 -110 135 -130 135 -5 0 -9 9 -9 20 0 11 -7 37 -15 56 -11 28 -19 35 -37 32
-25 -3 -27 -21 -13 -106 7 -36 13 -46 45 -62 68 -35 120 -115 120 -185 0 -19
-2 -35 -4 -35 -2 0 -23 9 -47 19 -68 29 -123 36 -143 16 -30 -31 -14 -49 52
-59 88 -13 154 -64 191 -146 65 -143 -31 -312 -191 -336 -66 -10 -82 -28 -52
-59 20 -20 75 -13 143 16 24 10 45 19 47 19 2 0 4 -16 4 -35 0 -71 -52 -150
-121 -186 -31 -15 -39 -25 -39 -47 0 -16 -12 -52 -26 -80 -53 -107 -178 -140
-284 -74 -29 18 -60 32 -69 30 -23 -5 -26 -36 -4 -60 24 -27 111 -68 146 -68
33 0 34 -7 4 -51 -63 -94 -205 -104 -281 -20 -17 18 -18 26 -8 60 17 55 17
1537 0 1592 -10 34 -9 42 8 60 76 84 218 74 281 -20 30 -44 29 -51 -4 -51 -35
0 -122 -41 -146 -68 -22 -24 -19 -55 4 -60 9 -2 39 11 66 28 61 38 113 46 173
27 55 -17 70 -13 70 19 0 19 -8 29 -34 39 -24 10 -38 24 -45 48 -14 42 -74
113 -112 132 -95 50 -206 36 -283 -36 l-43 -39 -36 15 c-20 8 -48 15 -62 15
-14 0 -42 -7 -62 -15 -36 -15 -36 -15 -78 24 -27 25 -63 46 -96 55 -58 18 -67
18 -122 5z m130 -78 c59 -27 77 -59 63 -108 -7 -26 -10 -197 -8 -553 3 -500 4
-515 22 -518 45 -9 46 2 46 546 l0 514 29 29 c24 24 38 29 76 29 38 0 52 -5
76 -29 l29 -29 0 -777 0 -777 -31 -29 c-44 -41 -108 -41 -150 0 l-29 29 0 184
c0 145 -3 188 -14 204 -12 15 -18 17 -33 8 -16 -10 -18 -30 -21 -190 -2 -111
1 -193 8 -217 15 -50 -5 -81 -67 -109 -82 -36 -183 -4 -226 71 -20 34 -20 35
45 46 52 8 123 64 123 95 0 36 -25 36 -82 0 -60 -37 -105 -46 -161 -31 -77 21
-151 110 -152 183 0 20 -10 32 -45 52 -69 41 -115 116 -115 187 0 34 -2 33 37
14 17 -8 56 -20 87 -27 50 -10 59 -9 74 6 26 25 4 48 -59 61 -96 20 -151 62
-188 145 -49 109 -1 251 104 308 17 9 54 21 84 27 63 13 85 36 59 61 -15 15
-24 16 -74 6 -31 -7 -70 -19 -87 -27 -39 -19 -37 -20 -37 14 0 71 46 146 115
187 35 20 45 32 45 52 1 73 75 162 152 183 56 15 101 6 161 -31 55 -34 80 -35
85 -4 5 37 -92 104 -152 104 -36 0 -38 12 -10 54 48 70 140 93 221 57z"/>
<path d="M10 1145 c-18 -22 -4 -116 31 -203 16 -41 29 -92 29 -115 0 -101 53
-218 131 -296 54 -52 91 -65 103 -35 4 11 -14 38 -58 84 -74 79 -104 147 -113
255 -4 40 -16 93 -29 122 -13 29 -28 83 -34 120 -13 79 -32 101 -60 68z"/>
<path d="M2203 1152 c-7 -4 -17 -38 -23 -75 -6 -37 -21 -91 -34 -120 -13 -29
-25 -82 -29 -122 -9 -108 -39 -176 -113 -255 -44 -46 -62 -73 -58 -84 12 -30
49 -17 103 35 78 78 131 195 131 296 0 23 13 74 29 115 54 134 50 246 -6 210z"/>
<path d="M467 283 c-43 -42 96 -210 209 -252 77 -29 156 -38 172 -18 21 25 4
45 -46 51 -123 18 -219 81 -268 177 -23 46 -48 62 -67 42z"/>
<path d="M1716 242 c-49 -97 -145 -160 -268 -178 -50 -6 -67 -26 -46 -51 16
-20 95 -11 173 18 130 48 273 245 188 257 -18 3 -27 -7 -47 -46z"/>
</g>
</svg>
